<svg width="141" height="40" viewBox="0 0 141 40" fill="none" xmlns="http://www.w3.org/2000/svg">
  <path d="M20.8666 15.0095V7.69523H24.219V32.3047H20.9428V18.7428H20.8666C17.6666 19.8857 14.3143 17.4476 14.3143 13.9429V0H17.5905V14.019C17.5905 15.1619 18.5809 15.6952 19.3428 15.6952C19.8697 15.6952 20.2828 15.4105 20.6804 15.1365C20.7427 15.0935 20.8047 15.0508 20.8666 15.0095Z" fill="#CE2951"/>
  <path d="M10.2762 7.69531L10.3524 21.2572C13.5524 20.1144 16.8286 22.5524 16.8286 26.0572V40.0001H13.5524V26.0572C13.5524 24.9144 12.5619 24.381 11.8 24.381C11.2731 24.381 10.86 24.6657 10.4624 24.9398C10.4001 24.9827 10.3381 25.0254 10.2762 25.0667V32.381H7V7.69531H10.2762Z" fill="#CE2951"/>
  <path d="M38.8824 20.4566V26.6002H36V11.7673H38.8824V17.9319H42.7537V11.7673H45.6361V26.6002H42.7537V20.4566H38.8824Z" fill="#CE2951"/>
  <path d="M49.463 30.6398L50.7254 26.5791L47.1066 14.776H50.0521L52.135 22.4344L54.2179 14.776H57.1424C55.5224 20.0779 53.8813 25.3588 52.2612 30.6398H49.463Z" fill="#CE2951"/>
  <path d="M63.6324 14.5866C65.7574 14.5866 67.146 15.9121 67.146 18.9418V22.3923C67.146 25.4009 65.7574 26.7264 63.6324 26.7264C61.802 26.7264 61.0446 25.5272 61.0446 25.5272V30.6608H58.2674V14.776H60.8342V16.0594C61.0025 15.6596 61.9282 14.5866 63.6324 14.5866ZM62.6857 17.0272C61.6968 17.0272 61.0025 17.7005 61.0025 19.1522V22.224C61.0025 23.6336 61.7178 24.2648 62.6857 24.2648C63.7166 24.2648 64.3899 23.5915 64.3899 22.1608V19.1522C64.3899 17.7005 63.6956 17.0272 62.6857 17.0272Z" fill="#CE2951"/>
  <path d="M74.9228 22.8131H77.6579V22.8972C77.6579 25.0643 76.0168 26.8106 73.2396 26.8106C70.4203 26.8106 68.8003 25.0222 68.8003 22.1819V19.2995C68.8003 16.4171 70.4203 14.6287 73.2396 14.6287C76.0168 14.6287 77.6579 16.2908 77.6579 19.1943V21.5086H71.5354V22.792C71.5354 23.844 72.377 24.5593 73.2396 24.5593C74.1653 24.5593 74.9228 24.0334 74.9228 23.0655V22.8131ZM71.5354 18.7104V19.573H74.9228V19.0049C74.9228 17.4269 74.2705 16.901 73.2396 16.901C72.2718 16.901 71.5354 17.448 71.5354 18.7104Z" fill="#CE2951"/>
  <path d="M90.8484 17.1114V16.901C90.8484 14.7129 89.7964 14.271 88.7865 14.271C87.7976 14.271 86.7457 14.818 86.7457 16.5222V21.7821C86.7457 23.5284 87.7976 24.0544 88.7865 24.0544C90.133 24.0544 90.8484 23.4022 90.8484 21.2351V21.0457H93.7308C93.7308 24.8329 92.1318 26.8316 88.7865 26.8316C85.883 26.8316 83.8632 24.7277 83.8632 21.698V16.6064C83.8632 13.5978 85.883 11.4938 88.7865 11.4938C92.0687 11.4938 93.7308 13.6609 93.7308 17.1114H90.8484Z" fill="white"/>
  <path d="M98.6949 26.7895C96.591 26.7895 95.2024 25.443 95.2024 22.4133V18.9839C95.2024 15.9331 96.6331 14.6287 98.6949 14.6287C100.42 14.6287 101.325 15.7227 101.493 16.1015V14.776H104.06V26.6002H101.493V25.2957C101.325 25.6955 100.42 26.7895 98.6949 26.7895ZM99.6417 24.3279C100.652 24.3279 101.325 23.6546 101.325 22.2029V19.1522C101.325 17.7215 100.61 17.0903 99.6417 17.0903C98.6318 17.0903 97.9586 17.7425 97.9586 19.1943V22.2029C97.9586 23.6757 98.6318 24.3279 99.6417 24.3279Z" fill="white"/>
  <path d="M110.177 14.5656C113.017 14.5656 114.595 15.9121 114.595 18.6052H111.923C111.923 17.2797 111.208 16.922 110.198 16.922C109.251 16.922 108.704 17.3428 108.704 18.0581C108.704 20.2673 114.722 19.1943 114.722 23.297C114.722 25.5903 113.165 26.8737 110.303 26.8737C107.484 26.8737 105.738 25.3168 105.738 22.6868H108.473C108.473 23.9913 109.251 24.5383 110.303 24.5383C111.355 24.5383 111.965 23.9492 111.965 23.2759C111.965 21.2141 106.011 22.224 106.011 18.0581C106.011 15.8911 107.568 14.5656 110.177 14.5656Z" fill="white"/>
  <path d="M119.294 14.776V26.6002H116.559V14.776H119.294ZM119.61 11.6832C119.61 12.6089 118.873 13.3453 117.948 13.3453C117.022 13.3453 116.285 12.6089 116.285 11.6832C116.285 10.7574 117.022 10 117.948 10C118.873 10 119.61 10.7574 119.61 11.6832Z" fill="white"/>
  <path d="M124.368 19.2363V26.6002H121.632V14.776H124.199V16.1225C124.368 15.7438 125.293 14.6497 126.998 14.6497C129.123 14.6497 130.511 15.9752 130.511 18.9839V26.6002H127.755V19.1943C127.755 17.7425 127.124 17.1114 126.051 17.1114C124.936 17.1114 124.368 17.7215 124.368 19.2363Z" fill="white"/>
  <path d="M136.584 26.8106C133.743 26.8106 132.144 25.0222 132.144 22.1188V19.2784C132.144 16.4802 133.743 14.6497 136.584 14.6497C139.34 14.6497 141.002 16.4802 141.002 19.2784V22.1188C141.002 25.0222 139.34 26.8106 136.584 26.8106ZM136.584 17.1324C135.616 17.1324 134.879 17.6794 134.879 18.9418V22.5185C134.879 23.7809 135.616 24.3489 136.584 24.3489C137.488 24.3489 138.267 23.7809 138.267 22.5185V18.9418C138.267 17.6794 137.509 17.1324 136.584 17.1324Z" fill="white"/>
</svg>
