<svg width="40" height="40" viewBox="0 0 40 40" fill="none" xmlns="http://www.w3.org/2000/svg">
<path d="M17.6667 2.11695C19.1105 1.28333 20.8895 1.28333 22.3333 2.11695L34.3205 9.03775C35.7644 9.87137 36.6538 11.412 36.6538 13.0792V26.9208C36.6538 28.588 35.7644 30.1286 34.3205 30.9622L22.3333 37.883C20.8895 38.7167 19.1105 38.7167 17.6667 37.883L5.67949 30.9622C4.23562 30.1286 3.34616 28.588 3.34616 26.9208V13.0792C3.34616 11.412 4.23562 9.87137 5.67949 9.03775L17.6667 2.11695Z" stroke="url(#paint0_linear_7274_35803)" stroke-width="1.33333"/>
<path d="M26.8894 21.3792L21.8163 18.9795L20.391 21.9927L23.5561 23.4899V26.3222L19.9978 28.0054L15.4749 25.8659L13.4688 24.9517V28.6148L14.071 28.8893L18.3312 30.9044V34.2415L19.9978 35.3337L21.6645 34.2415V30.9044L26.8894 28.4329V21.3792Z" fill="white"/>
<path d="M21.6637 9.05257V5.68392L19.997 4.66699L18.3304 5.68392V9.05257L13.1055 11.5158V18.5561L18.1814 20.9491L19.6028 17.934L16.4388 16.4423V13.6295L19.997 11.952L24.5142 14.0816L26.5346 15.0244V11.346L25.9327 11.0652L25.9267 11.0624L21.6637 9.05257Z" fill="url(#paint1_linear_7274_35803)"/>
<defs>
<linearGradient id="paint0_linear_7274_35803" x1="20" y1="0" x2="20" y2="40" gradientUnits="userSpaceOnUse">
<stop stop-color="#E5913B"/>
<stop offset="1" stop-color="#E56E3B"/>
</linearGradient>
<linearGradient id="paint1_linear_7274_35803" x1="19.8201" y1="4.66699" x2="19.8201" y2="20.9491" gradientUnits="userSpaceOnUse">
<stop stop-color="#E5913B"/>
<stop offset="1" stop-color="#E56E3B"/>
</linearGradient>
</defs>
</svg>
